<svg xmlns="http://www.w3.org/2000/svg" xmlns:xlink="http://www.w3.org/1999/xlink" width="190.136" height="30" viewBox="0 0 190.136 30">
  <defs>
    <linearGradient id="linear-gradient" x1="0.866" y1="0.23" x2="0.088" y2="1" gradientUnits="objectBoundingBox">
      <stop offset="0" stop-color="#c29cff"/>
      <stop offset="1" stop-color="#4d2d80"/>
    </linearGradient>
  </defs>
  <g id="logo_sw" transform="translate(0 -3)">
    <path id="Path_4" data-name="Path 4" d="M27.833,18A12.833,12.833,0,1,1,15,5.167,12.833,12.833,0,0,1,27.833,18ZM30,18A15,15,0,1,1,15,3,15,15,0,0,1,30,18Zm-6.724-6.724a1.552,1.552,0,1,1-1.552-1.552A1.552,1.552,0,0,1,23.276,11.276ZM10.488,19.209a4.671,4.671,0,1,0,3.3-5.721A4.671,4.671,0,0,0,10.488,19.209ZM8.4,19.77A6.838,6.838,0,1,0,13.23,11.4,6.838,6.838,0,0,0,8.4,19.77Z" fill-rule="evenodd" fill="url(#linear-gradient)"/>
    <path id="Path_5" data-name="Path 5" d="M7.512.288c4.8,0,7.128-2.4,7.128-5.208,0-6.168-9.768-4.032-9.768-7.128,0-1.056.888-1.92,3.192-1.92a9.488,9.488,0,0,1,4.656,1.32l1.2-2.952a11.269,11.269,0,0,0-5.832-1.488c-4.776,0-7.08,2.376-7.08,5.232,0,6.24,9.768,4.08,9.768,7.224,0,1.032-.936,1.8-3.24,1.8A9.882,9.882,0,0,1,1.992-4.584L.672-1.656A11.974,11.974,0,0,0,7.512.288ZM25.08-3.264a2.523,2.523,0,0,1-1.512.48,1.506,1.506,0,0,1-1.608-1.7V-9.744h3.216v-2.88H21.96v-3.144H18.216v3.144H16.224v2.88h1.992v5.3c0,3.072,1.776,4.632,4.824,4.632a5.351,5.351,0,0,0,3.048-.816ZM34.656.192c4.1,0,7.08-2.76,7.08-6.648S38.76-13.1,34.656-13.1s-7.1,2.76-7.1,6.648S30.552.192,34.656.192Zm0-3.072a3.276,3.276,0,0,1-3.312-3.576,3.276,3.276,0,0,1,3.312-3.576,3.259,3.259,0,0,1,3.288,3.576A3.259,3.259,0,0,1,34.656-2.88Zm13.872-8.328v-1.7H44.952V0H48.7V-6.1c0-2.472,1.368-3.6,3.432-3.6.288,0,.528.024.84.048V-13.1A5.211,5.211,0,0,0,48.528-11.208Zm17.064-1.7-3.648,8.76-3.624-8.76H54.456L60.048.1,60,.216c-.5,1.152-1.08,1.608-2.112,1.608a3.319,3.319,0,0,1-2.112-.816L54.408,3.672a5.734,5.734,0,0,0,3.6,1.176c2.328,0,4.1-.936,5.352-4.056l5.832-13.7Zm22.968,0L85.416-4.176l-3.072-8.736H79.176L76.008-4.176,72.96-12.912H69.432L74.088,0h3.6l3-8.016L83.592,0h3.6l4.68-12.912Zm18.072,6.5a6.392,6.392,0,0,0-6.72-6.7,6.574,6.574,0,0,0-6.888,6.648c0,3.84,2.9,6.648,7.368,6.648A6.763,6.763,0,0,0,105.72-1.9l-1.992-2.16a4.377,4.377,0,0,1-3.24,1.248,3.443,3.443,0,0,1-3.7-2.592h9.768C106.584-5.712,106.632-6.12,106.632-6.408Zm-6.7-3.864A3.068,3.068,0,0,1,103.1-7.584h-6.36A3.057,3.057,0,0,1,99.936-10.272ZM114.7-13.1a9.926,9.926,0,0,0-5.568,1.56l1.344,2.616a6.208,6.208,0,0,1,3.72-1.2c2.016,0,2.976.936,2.976,2.544h-2.976c-3.936,0-5.544,1.584-5.544,3.864,0,2.232,1.8,3.912,4.824,3.912,1.9,0,3.24-.624,3.936-1.8V0h3.5V-7.368C120.912-11.28,118.632-13.1,114.7-13.1Zm-.288,10.776c-1.32,0-2.112-.624-2.112-1.56,0-.864.552-1.512,2.3-1.512h2.568v1.32A2.759,2.759,0,0,1,114.408-2.328Zm19.584-10.584-3.7,8.784-3.576-8.784h-3.864L128.28,0h3.864l5.448-12.912Zm18.144,6.5a6.392,6.392,0,0,0-6.72-6.7,6.573,6.573,0,0,0-6.888,6.648c0,3.84,2.9,6.648,7.368,6.648A6.763,6.763,0,0,0,151.224-1.9l-1.992-2.16a4.377,4.377,0,0,1-3.24,1.248A3.443,3.443,0,0,1,142.3-5.4h9.768C152.088-5.712,152.136-6.12,152.136-6.408Zm-6.7-3.864a3.068,3.068,0,0,1,3.168,2.688h-6.36A3.057,3.057,0,0,1,145.44-10.272Z" transform="translate(38 27)" fill="#fff"/>
  </g>
</svg>
